<?xml version="1.0" encoding="UTF-8"?>
<svg id="Capa_2" data-name="Capa 2" xmlns="http://www.w3.org/2000/svg" viewBox="0 0 725.14 274.73">
  <defs>
    <style>
      .cls-1 {
        fill: #fff;
      }
    </style>
  </defs>
  <g id="Capa_1-2" data-name="Capa 1">
    <path class="cls-1" d="m566.99,15.45h0,0m-.87,1.54h0,0m-19.68,119c.14.06.28.11.42.17l-.52.4.1-.57M712.62,0h-3.2c-2.47.33-4.99,1.45-7.34,3.59l-148.8,115.75,17.74-104.29c1.01-5.97-3-11.64-8.98-12.65-.62-.11-1.24-.16-1.86-.16-3.77,0-7.23,1.95-9.21,5.04-.03.03-.07.11-.07.11l-161.65,228.75L223,14.67c-1.12-1.49-2.59-2.55-4.22-3.15h0c-.06-.04-.13-.08-.19-.12-1.22-.72-2.56-1.06-3.88-1.06-2.63,0-5.2,1.36-6.63,3.8L78.16,235.58l23.46-107.02c.65-2.96-1.22-5.89-4.18-6.53-.39-.09-.79-.13-1.18-.13-1.47,0-2.85.59-3.86,1.59-.22.17-.42.38-.61.6L1,234.12c-.67.81-1,1.8-1,2.78,0,1.26.55,2.52,1.6,3.39.82.68,1.81,1.01,2.79,1.01,1.26,0,2.52-.55,3.38-1.6l79.33-96.13-26.62,121.47c-.31,1.42-.04,2.84.66,4,.5,1.9,1.72,3.62,3.55,4.69.91.54,1.9.87,2.89,1h1.97c2.27-.3,4.4-1.61,5.65-3.74L214.21,34.02l167.4,222.99c.76,1.01,1.68,1.82,2.7,2.42.25.23.52.44.8.64,1.83,1.29,3.92,1.91,6,1.91,3.27,0,6.49-1.54,8.52-4.41l142.08-201.05-14.76,86.76c-.38,2.24-.05,4.44.82,6.36h0c.54,2.1,1.59,4.1,3.14,5.8,2.71,2.96,6.41,4.46,10.12,4.46,3.3,0,6.62-1.19,9.25-3.59L720.58,23.84c9.86-9.08,2.11-22.53-7.96-23.84h0Z"/>
  </g>
</svg>