<?xml version="1.0" encoding="UTF-8"?>
<svg id="Capa_2" data-name="Capa 2" xmlns="http://www.w3.org/2000/svg" viewBox="0 0 725.16 274.9">
  <defs>
    <style>
      .cls-1 {
        fill: #fff;
        fill-rule: evenodd;
      }

      .cls-2 {
        fill: none;
      }
    </style>
  </defs>
  <g id="Capa_1-2" data-name="Capa 1">
    <path class="cls-2" d="m64.69,273.83c.91.54,1.9.87,2.89,1H0v-37.83c0,1.26.55,2.52,1.6,3.39,1.87,1.55,4.63,1.28,6.17-.59l79.33-96.13-26.62,121.47c-.31,1.42-.04,2.84.66,3.99h0c.5,1.91,1.72,3.63,3.55,4.7Z"/>
    <path class="cls-2" d="m709.42.11c-2.47.33-4.99,1.45-7.34,3.59l-148.8,115.75,17.74-104.29c1.01-5.97-3-11.64-8.98-12.66h0c-4.47-.75-8.77,1.3-11.07,4.89-.03.03-.05.07-.07.11l-161.65,228.74L223,14.76c-1.12-1.49-2.59-2.55-4.22-3.15h-.01c-.06-.04-.13-.08-.19-.12-3.66-2.15-8.36-.92-10.51,2.74L78.16,235.68l23.46-107.02c.65-2.96-1.22-5.89-4.18-6.53-1.89-.41-3.76.2-5.04,1.46-.22.17-.42.38-.61.6L1,234.23c-.67.81-1,1.8-1,2.78V.11h709.42Z"/>
    <path class="cls-2" d="m725.16.11v274.73H69.55c2.27-.3,4.4-1.61,5.65-3.74L214.21,34.12l167.39,222.99c.76,1.01,1.68,1.82,2.7,2.42.25.23.52.44.8.64,4.7,3.32,11.2,2.2,14.52-2.5l142.08-201.05-14.76,86.76c-.38,2.24-.05,4.44.82,6.36,0,.01,0,.01,0,.01.54,2.09,1.59,4.09,3.14,5.79,5.11,5.59,13.78,5.98,19.37.87,0,0,170.31-132.47,170.3-132.47,9.86-9.08,2.11-22.53-7.96-23.84h12.54Z"/>
    <g>
      <path class="cls-1" d="m720.58,23.94s-170.3,132.47-170.3,132.47c-5.59,5.11-14.26,4.72-19.37-.87-1.55-1.7-2.6-3.7-3.14-5.79,0,0,0,0,0-.01-.87-1.92-1.2-4.12-.82-6.36l14.76-86.76-142.08,201.05c-3.32,4.7-9.82,5.82-14.52,2.5-.28-.2-.55-.41-.8-.64-1.02-.6-1.94-1.41-2.7-2.42L214.21,34.12l-139.01,236.97c-1.25,2.13-3.38,3.44-5.65,3.74h-1.97c-.99-.13-1.98-.46-2.89-1-1.83-1.07-3.05-2.79-3.55-4.69h0c-.7-1.16-.97-2.58-.66-4l26.62-121.47L7.77,239.8c-1.54,1.87-4.3,2.14-6.17.59-1.05-.87-1.6-2.13-1.6-3.39,0-.98.33-1.97,1-2.78l90.79-110.03c.19-.22.39-.43.61-.6,1.28-1.26,3.15-1.87,5.04-1.46,2.96.64,4.83,3.57,4.18,6.53l-23.46,107.02L208.07,14.24c2.15-3.66,6.85-4.89,10.51-2.74.06.04.13.08.19.12h.01c1.63.6,3.1,1.66,4.22,3.15l166.25,221.47L550.9,7.49s.04-.08.07-.11c2.3-3.59,6.6-5.64,11.07-4.88h0c5.98,1.01,9.99,6.68,8.98,12.65l-17.74,104.29L702.08,3.69c2.35-2.14,4.87-3.26,7.34-3.59h3.2c10.07,1.31,17.82,14.76,7.96,23.84Z"/>
      <path class="cls-1" d="m69.55,274.83c-.65.08-1.31.08-1.97,0h1.97Z"/>
      <path class="cls-1" d="m712.62.11h-3.2c1.08-.14,2.15-.14,3.2,0Z"/>
    </g>
  </g>
</svg>